<mxfile host="app.diagrams.net" modified="2020-12-02T10:48:34.640Z" agent="5.0 (Windows NT 10.0; Win64; x64) AppleWebKit/537.36 (KHTML, like Gecko) Chrome/87.0.4280.66 Safari/537.36" etag="YG8L7NZzj7rWQoP-_SM5" version="13.8.7" type="github">
  <diagram id="C5RBs43oDa-KdzZeNtuy" name="Page-1">
    <mxGraphModel dx="868" dy="450" grid="1" gridSize="10" guides="1" tooltips="1" connect="1" arrows="1" fold="1" page="1" pageScale="1" pageWidth="827" pageHeight="1169" math="0" shadow="0">
      <root>
        <mxCell id="WIyWlLk6GJQsqaUBKTNV-0" />
        <mxCell id="WIyWlLk6GJQsqaUBKTNV-1" parent="WIyWlLk6GJQsqaUBKTNV-0" />
        <mxCell id="WIyWlLk6GJQsqaUBKTNV-6" value="Venden" style="rhombus;whiteSpace=wrap;html=1;shadow=0;fontFamily=Helvetica;fontSize=12;align=center;strokeWidth=1;spacing=6;spacingTop=-4;fillColor=#60a917;strokeColor=#2D7600;fontColor=#ffffff;" parent="WIyWlLk6GJQsqaUBKTNV-1" vertex="1">
          <mxGeometry x="300" y="77" width="60" height="56" as="geometry" />
        </mxCell>
        <mxCell id="WIyWlLk6GJQsqaUBKTNV-7" value="ESCRITOR" style="rounded=1;whiteSpace=wrap;html=1;fontSize=12;glass=0;strokeWidth=1;shadow=0;fillColor=#6a00ff;strokeColor=#3700CC;fontColor=#ffffff;" parent="WIyWlLk6GJQsqaUBKTNV-1" vertex="1">
          <mxGeometry x="440" y="260" width="70" height="40" as="geometry" />
        </mxCell>
        <mxCell id="SlhJKum5GCpUP7xPDJLU-3" value="" style="endArrow=none;html=1;exitX=1;exitY=0.5;exitDx=0;exitDy=0;" edge="1" parent="WIyWlLk6GJQsqaUBKTNV-1" source="WIyWlLk6GJQsqaUBKTNV-6">
          <mxGeometry width="50" height="50" relative="1" as="geometry">
            <mxPoint x="389" y="150" as="sourcePoint" />
            <mxPoint x="439" y="105" as="targetPoint" />
          </mxGeometry>
        </mxCell>
        <mxCell id="SlhJKum5GCpUP7xPDJLU-4" value="" style="endArrow=none;html=1;entryX=0;entryY=0.5;entryDx=0;entryDy=0;exitX=1;exitY=0.5;exitDx=0;exitDy=0;" edge="1" parent="WIyWlLk6GJQsqaUBKTNV-1" target="WIyWlLk6GJQsqaUBKTNV-6">
          <mxGeometry width="50" height="50" relative="1" as="geometry">
            <mxPoint x="220" y="104" as="sourcePoint" />
            <mxPoint x="270" y="50" as="targetPoint" />
          </mxGeometry>
        </mxCell>
        <mxCell id="SlhJKum5GCpUP7xPDJLU-5" value="LIBRO" style="rounded=1;whiteSpace=wrap;html=1;fontSize=12;glass=0;strokeWidth=1;shadow=0;fillColor=#6a00ff;strokeColor=#3700CC;fontColor=#ffffff;" vertex="1" parent="WIyWlLk6GJQsqaUBKTNV-1">
          <mxGeometry x="440" y="85" width="70" height="40" as="geometry" />
        </mxCell>
        <mxCell id="SlhJKum5GCpUP7xPDJLU-6" value="COPIA" style="rounded=1;whiteSpace=wrap;html=1;fontSize=12;glass=0;strokeWidth=1;shadow=0;fillColor=#6a00ff;strokeColor=#3700CC;fontColor=#ffffff;" vertex="1" parent="WIyWlLk6GJQsqaUBKTNV-1">
          <mxGeometry x="150" y="85" width="70" height="40" as="geometry" />
        </mxCell>
        <mxCell id="SlhJKum5GCpUP7xPDJLU-7" value="Escribe" style="rhombus;whiteSpace=wrap;html=1;shadow=0;fontFamily=Helvetica;fontSize=12;align=center;strokeWidth=1;spacing=6;spacingTop=-4;fillColor=#60a917;strokeColor=#2D7600;fontColor=#ffffff;" vertex="1" parent="WIyWlLk6GJQsqaUBKTNV-1">
          <mxGeometry x="445" y="166" width="60" height="56" as="geometry" />
        </mxCell>
        <mxCell id="SlhJKum5GCpUP7xPDJLU-8" value="&lt;u&gt;Nº Edición&lt;/u&gt;" style="ellipse;whiteSpace=wrap;html=1;fillColor=#1ba1e2;strokeColor=#006EAF;fontColor=#ffffff;" vertex="1" parent="WIyWlLk6GJQsqaUBKTNV-1">
          <mxGeometry x="90" y="30" width="70" height="40" as="geometry" />
        </mxCell>
        <mxCell id="SlhJKum5GCpUP7xPDJLU-9" value="Nº Copias" style="ellipse;whiteSpace=wrap;html=1;fillColor=#1ba1e2;strokeColor=#006EAF;fontColor=#ffffff;" vertex="1" parent="WIyWlLk6GJQsqaUBKTNV-1">
          <mxGeometry x="200" y="30" width="70" height="40" as="geometry" />
        </mxCell>
        <mxCell id="SlhJKum5GCpUP7xPDJLU-10" value="&lt;u&gt;Id Libro&lt;/u&gt;" style="ellipse;whiteSpace=wrap;html=1;fillColor=#1ba1e2;strokeColor=#006EAF;fontColor=#ffffff;" vertex="1" parent="WIyWlLk6GJQsqaUBKTNV-1">
          <mxGeometry x="400" y="20" width="70" height="40" as="geometry" />
        </mxCell>
        <mxCell id="SlhJKum5GCpUP7xPDJLU-11" value="Título" style="ellipse;whiteSpace=wrap;html=1;fillColor=#1ba1e2;strokeColor=#006EAF;fontColor=#ffffff;" vertex="1" parent="WIyWlLk6GJQsqaUBKTNV-1">
          <mxGeometry x="500" y="20" width="70" height="40" as="geometry" />
        </mxCell>
        <mxCell id="SlhJKum5GCpUP7xPDJLU-12" value="Género" style="ellipse;whiteSpace=wrap;html=1;fillColor=#1ba1e2;strokeColor=#006EAF;fontColor=#ffffff;" vertex="1" parent="WIyWlLk6GJQsqaUBKTNV-1">
          <mxGeometry x="580" y="60" width="70" height="40" as="geometry" />
        </mxCell>
        <mxCell id="SlhJKum5GCpUP7xPDJLU-13" value="Nombre" style="ellipse;whiteSpace=wrap;html=1;fillColor=#1ba1e2;strokeColor=#006EAF;fontColor=#ffffff;" vertex="1" parent="WIyWlLk6GJQsqaUBKTNV-1">
          <mxGeometry x="393" y="336" width="70" height="40" as="geometry" />
        </mxCell>
        <mxCell id="SlhJKum5GCpUP7xPDJLU-14" value="Apellido" style="ellipse;whiteSpace=wrap;html=1;fillColor=#1ba1e2;strokeColor=#006EAF;fontColor=#ffffff;" vertex="1" parent="WIyWlLk6GJQsqaUBKTNV-1">
          <mxGeometry x="485" y="337" width="70" height="40" as="geometry" />
        </mxCell>
        <mxCell id="SlhJKum5GCpUP7xPDJLU-15" value="Origen" style="ellipse;whiteSpace=wrap;html=1;fillColor=#1ba1e2;strokeColor=#006EAF;fontColor=#ffffff;" vertex="1" parent="WIyWlLk6GJQsqaUBKTNV-1">
          <mxGeometry x="540" y="261" width="70" height="40" as="geometry" />
        </mxCell>
        <mxCell id="SlhJKum5GCpUP7xPDJLU-16" value="&lt;u&gt;Pseudónimo&lt;/u&gt;" style="ellipse;whiteSpace=wrap;html=1;fillColor=#1ba1e2;strokeColor=#006EAF;fontColor=#ffffff;" vertex="1" parent="WIyWlLk6GJQsqaUBKTNV-1">
          <mxGeometry x="344" y="260" width="70" height="40" as="geometry" />
        </mxCell>
        <mxCell id="SlhJKum5GCpUP7xPDJLU-17" value="&lt;u&gt;pk Id Libro&amp;nbsp;&lt;/u&gt;" style="ellipse;whiteSpace=wrap;html=1;fillColor=#1ba1e2;strokeColor=#006EAF;fontColor=#ffffff;" vertex="1" parent="WIyWlLk6GJQsqaUBKTNV-1">
          <mxGeometry x="60" y="85" width="70" height="40" as="geometry" />
        </mxCell>
        <mxCell id="SlhJKum5GCpUP7xPDJLU-18" value="" style="endArrow=none;html=1;" edge="1" parent="WIyWlLk6GJQsqaUBKTNV-1">
          <mxGeometry width="50" height="50" relative="1" as="geometry">
            <mxPoint x="415" y="49.5" as="sourcePoint" />
            <mxPoint x="455" y="49.5" as="targetPoint" />
          </mxGeometry>
        </mxCell>
        <mxCell id="SlhJKum5GCpUP7xPDJLU-19" value="" style="endArrow=none;html=1;" edge="1" parent="WIyWlLk6GJQsqaUBKTNV-1">
          <mxGeometry width="50" height="50" relative="1" as="geometry">
            <mxPoint x="359" y="289" as="sourcePoint" />
            <mxPoint x="399" y="289" as="targetPoint" />
          </mxGeometry>
        </mxCell>
        <mxCell id="SlhJKum5GCpUP7xPDJLU-20" value="" style="endArrow=none;html=1;" edge="1" parent="WIyWlLk6GJQsqaUBKTNV-1">
          <mxGeometry width="50" height="50" relative="1" as="geometry">
            <mxPoint x="105" y="60" as="sourcePoint" />
            <mxPoint x="145" y="60" as="targetPoint" />
          </mxGeometry>
        </mxCell>
        <mxCell id="SlhJKum5GCpUP7xPDJLU-23" value="&lt;u&gt;pkPseudónimo&lt;/u&gt;" style="ellipse;whiteSpace=wrap;html=1;fillColor=#1ba1e2;strokeColor=#006EAF;fontColor=#ffffff;" vertex="1" parent="WIyWlLk6GJQsqaUBKTNV-1">
          <mxGeometry x="540" y="120" width="80" height="40" as="geometry" />
        </mxCell>
        <mxCell id="SlhJKum5GCpUP7xPDJLU-24" value="" style="endArrow=none;html=1;" edge="1" parent="WIyWlLk6GJQsqaUBKTNV-1">
          <mxGeometry width="50" height="50" relative="1" as="geometry">
            <mxPoint x="474.5" y="165" as="sourcePoint" />
            <mxPoint x="474.5" y="125" as="targetPoint" />
          </mxGeometry>
        </mxCell>
        <mxCell id="SlhJKum5GCpUP7xPDJLU-25" value="" style="endArrow=none;html=1;" edge="1" parent="WIyWlLk6GJQsqaUBKTNV-1">
          <mxGeometry width="50" height="50" relative="1" as="geometry">
            <mxPoint x="200" y="85" as="sourcePoint" />
            <mxPoint x="220" y="70" as="targetPoint" />
          </mxGeometry>
        </mxCell>
        <mxCell id="SlhJKum5GCpUP7xPDJLU-26" value="" style="endArrow=none;html=1;entryX=0.257;entryY=0.975;entryDx=0;entryDy=0;entryPerimeter=0;" edge="1" parent="WIyWlLk6GJQsqaUBKTNV-1" target="SlhJKum5GCpUP7xPDJLU-11">
          <mxGeometry width="50" height="50" relative="1" as="geometry">
            <mxPoint x="480" y="85" as="sourcePoint" />
            <mxPoint x="530" y="35" as="targetPoint" />
          </mxGeometry>
        </mxCell>
        <mxCell id="SlhJKum5GCpUP7xPDJLU-27" value="" style="endArrow=none;html=1;entryX=0;entryY=0.5;entryDx=0;entryDy=0;" edge="1" parent="WIyWlLk6GJQsqaUBKTNV-1" target="SlhJKum5GCpUP7xPDJLU-12">
          <mxGeometry width="50" height="50" relative="1" as="geometry">
            <mxPoint x="510" y="105" as="sourcePoint" />
            <mxPoint x="560" y="55" as="targetPoint" />
          </mxGeometry>
        </mxCell>
        <mxCell id="SlhJKum5GCpUP7xPDJLU-28" value="" style="endArrow=none;html=1;" edge="1" parent="WIyWlLk6GJQsqaUBKTNV-1">
          <mxGeometry width="50" height="50" relative="1" as="geometry">
            <mxPoint x="430" y="336" as="sourcePoint" />
            <mxPoint x="470" y="300" as="targetPoint" />
          </mxGeometry>
        </mxCell>
        <mxCell id="SlhJKum5GCpUP7xPDJLU-29" value="" style="endArrow=none;html=1;" edge="1" parent="WIyWlLk6GJQsqaUBKTNV-1">
          <mxGeometry width="50" height="50" relative="1" as="geometry">
            <mxPoint x="414" y="279.5" as="sourcePoint" />
            <mxPoint x="441" y="280" as="targetPoint" />
          </mxGeometry>
        </mxCell>
        <mxCell id="SlhJKum5GCpUP7xPDJLU-31" value="" style="endArrow=none;html=1;entryX=0;entryY=0.5;entryDx=0;entryDy=0;" edge="1" parent="WIyWlLk6GJQsqaUBKTNV-1" target="SlhJKum5GCpUP7xPDJLU-15">
          <mxGeometry width="50" height="50" relative="1" as="geometry">
            <mxPoint x="511" y="279.5" as="sourcePoint" />
            <mxPoint x="540.3225948092932" y="282.29082771947606" as="targetPoint" />
          </mxGeometry>
        </mxCell>
        <mxCell id="SlhJKum5GCpUP7xPDJLU-32" value="" style="endArrow=none;html=1;entryX=0.5;entryY=1;entryDx=0;entryDy=0;" edge="1" parent="WIyWlLk6GJQsqaUBKTNV-1" target="WIyWlLk6GJQsqaUBKTNV-7">
          <mxGeometry width="50" height="50" relative="1" as="geometry">
            <mxPoint x="520" y="336" as="sourcePoint" />
            <mxPoint x="456" y="258" as="targetPoint" />
          </mxGeometry>
        </mxCell>
        <mxCell id="SlhJKum5GCpUP7xPDJLU-33" value="" style="endArrow=none;html=1;exitX=0.5;exitY=1;exitDx=0;exitDy=0;entryX=0.357;entryY=0.025;entryDx=0;entryDy=0;entryPerimeter=0;" edge="1" parent="WIyWlLk6GJQsqaUBKTNV-1" target="SlhJKum5GCpUP7xPDJLU-6">
          <mxGeometry width="50" height="50" relative="1" as="geometry">
            <mxPoint x="150" y="65" as="sourcePoint" />
            <mxPoint x="170" y="90" as="targetPoint" />
          </mxGeometry>
        </mxCell>
        <mxCell id="SlhJKum5GCpUP7xPDJLU-34" value="" style="endArrow=none;html=1;" edge="1" parent="WIyWlLk6GJQsqaUBKTNV-1">
          <mxGeometry width="50" height="50" relative="1" as="geometry">
            <mxPoint x="475.5" y="261" as="sourcePoint" />
            <mxPoint x="475.5" y="221" as="targetPoint" />
          </mxGeometry>
        </mxCell>
        <mxCell id="SlhJKum5GCpUP7xPDJLU-35" value="" style="endArrow=none;html=1;exitX=0;exitY=0.5;exitDx=0;exitDy=0;entryX=1;entryY=0.5;entryDx=0;entryDy=0;" edge="1" parent="WIyWlLk6GJQsqaUBKTNV-1" source="SlhJKum5GCpUP7xPDJLU-6" target="SlhJKum5GCpUP7xPDJLU-17">
          <mxGeometry width="50" height="50" relative="1" as="geometry">
            <mxPoint x="160" y="75" as="sourcePoint" />
            <mxPoint x="184.99" y="96" as="targetPoint" />
          </mxGeometry>
        </mxCell>
        <mxCell id="SlhJKum5GCpUP7xPDJLU-36" value="" style="endArrow=none;html=1;entryX=0.5;entryY=1;entryDx=0;entryDy=0;exitX=0.386;exitY=0.025;exitDx=0;exitDy=0;exitPerimeter=0;" edge="1" parent="WIyWlLk6GJQsqaUBKTNV-1" source="SlhJKum5GCpUP7xPDJLU-5" target="SlhJKum5GCpUP7xPDJLU-10">
          <mxGeometry width="50" height="50" relative="1" as="geometry">
            <mxPoint x="460" y="80" as="sourcePoint" />
            <mxPoint x="184.99" y="96" as="targetPoint" />
          </mxGeometry>
        </mxCell>
        <mxCell id="SlhJKum5GCpUP7xPDJLU-37" value="" style="endArrow=none;html=1;entryX=1;entryY=0.75;entryDx=0;entryDy=0;exitX=0;exitY=0.5;exitDx=0;exitDy=0;" edge="1" parent="WIyWlLk6GJQsqaUBKTNV-1" source="SlhJKum5GCpUP7xPDJLU-23" target="SlhJKum5GCpUP7xPDJLU-5">
          <mxGeometry width="50" height="50" relative="1" as="geometry">
            <mxPoint x="477.02" y="96" as="sourcePoint" />
            <mxPoint x="445" y="70" as="targetPoint" />
          </mxGeometry>
        </mxCell>
      </root>
    </mxGraphModel>
  </diagram>
</mxfile>
